<mxfile host="app.diagrams.net" modified="2024-03-26T13:32:24.141Z" agent="Mozilla/5.0 (Windows NT 10.0; Win64; x64) AppleWebKit/537.36 (KHTML, like Gecko) Chrome/122.0.0.0 Safari/537.36" version="24.1.0" etag="MdP48Cfr6w_ge7rZxLdd" type="github">
  <diagram name="第 1 页" id="b7wLGEne5XlnnsPKV0fn">
    <mxGraphModel>
      <root>
        <mxCell id="0" />
        <mxCell id="1" parent="0" />
      </root>
    </mxGraphModel>
  </diagram>
</mxfile>
